<svg xmlns="http://www.w3.org/2000/svg" xmlns:xlink="http://www.w3.org/1999/xlink" viewBox="0 0 2560 1440"><defs><style>.cls-1{fill:#fafcfc;}.cls-2{filter:url(#luminosity-noclip);}.cls-3{fill:#fff6c7;}.cls-4{mask:url(#mask);}.cls-5{fill:#000f15;}.cls-6{fill:#314d51;}.cls-7{fill:#578476;}.cls-8{fill:#46665a;}.cls-13,.cls-9{fill:#fff;}.cls-10{fill:#ff4e00;}.cls-11{fill:#ffa440;}.cls-12{fill:none;stroke:#314d51;stroke-miterlimit:10;stroke-width:6px;}.cls-13,.cls-17,.cls-20{opacity:0.5;}.cls-14,.cls-15,.cls-16{opacity:0.05;}.cls-14{fill:url(#linear-gradient);}.cls-15{fill:url(#linear-gradient-2);}.cls-16{fill:url(#linear-gradient-3);}.cls-18{fill:#50004d;}.cls-19{mask:url(#mask-2);}.cls-20{fill:#ab50ff;}.cls-21{opacity:0.15;}.cls-22{fill:#fdfffe;}</style><mask id="mask" x="0" y="0" width="2560" height="1562.4" maskUnits="userSpaceOnUse"><rect class="cls-1" width="2560" height="1440"/></mask><linearGradient id="linear-gradient" x1="2208.8" y1="693.71" x2="2200.67" y2="759.93" gradientUnits="userSpaceOnUse"><stop offset="0" stop-color="#fff6c7"/><stop offset="0.77" stop-color="#fff6c7" stop-opacity="0"/></linearGradient><linearGradient id="linear-gradient-2" x1="780.34" y1="735.9" x2="798.57" y2="814.89" gradientUnits="userSpaceOnUse"><stop offset="0" stop-color="#fff6c7"/><stop offset="0.57" stop-color="#fff6c7" stop-opacity="0"/></linearGradient><linearGradient id="linear-gradient-3" x1="1879.23" y1="258.22" x2="1874.97" y2="285.09" gradientUnits="userSpaceOnUse"><stop offset="0" stop-color="#fff6c7"/><stop offset="0.65" stop-color="#fff6c7" stop-opacity="0"/></linearGradient><filter id="luminosity-noclip" x="1530.65" y="337.56" width="210.19" height="83.42" filterUnits="userSpaceOnUse" color-interpolation-filters="sRGB"><feFlood flood-color="#fff" result="bg"/><feBlend in="SourceGraphic" in2="bg"/></filter><mask id="mask-2" x="1530.65" y="337.56" width="210.19" height="83.42" maskUnits="userSpaceOnUse"><path class="cls-2" d="M1700.2,400.24a64.49,64.49,0,0,0-128.89-1.12c0,0.36,0,1.12,0,1.12H1700.2Z"/></mask><symbol id="sparkle" data-name="sparkle" viewBox="0 0 14 14"><path class="cls-3" d="M13,7H8V0.5a0.5,0.5,0,0,0-1,0V7H1A0.5,0.5,0,0,0,1,8H7v5.5a0.5,0.5,0,0,0,1,0V8h5A0.5,0.5,0,0,0,13,7Z"/></symbol></defs><title>rocket</title><g class="cls-4"><g id="Content"><rect class="cls-5" width="2560" height="1440"/><path class="cls-6" d="M1314.47,687c51.2,0.33,54.93-7.54,67.77,33.6S1382,823.14,1399,855v17h-16.52c-68.31-117-58.53-121.91-68.31-116.75"/><path class="cls-6" d="M1239.21,687c-48.36.33-52.07-7.55-64.19,33.64s0,102.71-16,134.56V872h16c64.51-117,55.27-121.94,64.51-116.78"/><path class="cls-7" d="M1312.9,782c59.28-85.07,48-226.36-33.9-288-81.88,61.64-93.18,202.93-33.9,288h67.81Z"/><path class="cls-8" d="M1279,494c-81.88,61.64-93.18,202.93-33.9,288H1279V494Z"/><path class="cls-6" d="M1316,533.77q-2.24-3.39-4.63-6.66a183.06,183.06,0,0,1-64.8,0q-2.39,3.27-4.63,6.66A231.56,231.56,0,0,0,1316,533.77Z"/><path class="cls-6" d="M1209.93,705.84q1.1,8.3,2.77,16.48C1231,725.88,1254,728,1279,728s48-2.12,66.31-5.69q1.67-8.17,2.77-16.48c-18.72,2.6-42.8,4.16-69.07,4.16S1228.65,708.44,1209.93,705.84Z"/><path class="cls-6" d="M1279,600.5a16.5,16.5,0,1,1,16.5-16.5A16.52,16.52,0,0,1,1279,600.5Z"/><path class="cls-9" d="M1279,569a15,15,0,1,1-15,15,15,15,0,0,1,15-15m0-3a18,18,0,1,0,18,18,18,18,0,0,0-18-18h0Z"/><rect class="cls-3" x="1245" y="782" width="68" height="219"/><path class="cls-10" d="M1245.1,782c-35.72,13.45,36.51,62.5,23.41,132.38l19.42-17.48s54.94-52.76,25-114.9H1245.1Z"/><path class="cls-11" d="M1245.1,782c-11.9,10.64,48.69,55.33,42.05,76.65,0,0,29.06-47.14,25.76-76.65H1245.1Z"/><path class="cls-6" d="M1297,692a18,18,0,0,0-36,0c0,9.94,18,180,18,180S1297,701.94,1297,692Z"/><path class="cls-12" d="M1261,638l36-.14h0"/><path class="cls-12" d="M1261,656l36,0.1"/><circle class="cls-13" cx="1285.28" cy="577.64" r="1.91"/><path class="cls-3" d="M1766.3,1387.35a36.26,36.26,0,0,0-18.54,5.07c0-.12,0-0.24,0-0.36a62.94,62.94,0,0,0-101.87-49.48,54.9,54.9,0,0,0-46.47-71.78,43.4,43.4,0,0,0-69.47-44.91,27.6,27.6,0,0,0-29.67-29,54.24,54.24,0,0,0-8-46.61,78.68,78.68,0,0,0-82-128.87c0-.6,0-1.2,0-1.81A36.37,36.37,0,0,0,1374,983.24a26.61,26.61,0,1,0-51.88-11.29,37.82,37.82,0,0,0-44.3-.32,17.36,17.36,0,0,0-31.27-5.42,38.08,38.08,0,0,0-22-.29,13.09,13.09,0,1,0-24.43,9.37A31.44,31.44,0,0,0,1154.4,1012a72.48,72.48,0,0,0-95.93,101.82,37.46,37.46,0,0,0-50.89,35,37.74,37.74,0,0,0,.4,5.49,37.63,37.63,0,0,0-8.86,12.36,89.93,89.93,0,0,0-128.55,101.66l0.13,0.49a31.86,31.86,0,0,0-7.13,38.1,55.09,55.09,0,0,0-21.23,17,37.53,37.53,0,0,0-64.77,25.84c0,0.7,0,1.4.06,2.1a61,61,0,1,0,4.55,104.69l70.48,86.83,557.68,19,260.61-40.46,70-72A36.43,36.43,0,1,0,1766.3,1387.35Z"/><path class="cls-11" d="M1570.48,1399c-0.52,0-1,0-1.54,0,0-.55,0-1.1,0-1.66a43.38,43.38,0,0,0-85.41-10.77l-0.57.19a65.89,65.89,0,0,0-112.74-14.1,45.65,45.65,0,0,0-59.63,26.31h-0.32a34.44,34.44,0,0,0-15.1,3.47,45.64,45.64,0,0,0-76.27-19.5,43.88,43.88,0,0,0-29.45-2A80.4,80.4,0,0,0,1043,1362.77,53.36,53.36,0,0,0,960.35,1405a65.31,65.31,0,1,0,44.88,62,66,66,0,0,0-.39-7.06,53.68,53.68,0,0,0,8.81.74,53.12,53.12,0,0,0,32.73-11.23,80.36,80.36,0,0,0,126.39,7,43.86,43.86,0,0,0,57.91-.69,45.62,45.62,0,0,0,49.46-5.29,34.57,34.57,0,0,0,55.46,6.66,45.75,45.75,0,0,0,37.35-.84,65.88,65.88,0,0,0,104.09-6.51,34.73,34.73,0,0,0,37.21-1.67l0.06,0.34A56.61,56.61,0,1,0,1570.48,1399Z"/><circle class="cls-3" cx="1182.1" cy="912.99" r="5.71"/><circle class="cls-3" cx="1144.23" cy="927.26" r="8.56"/><circle class="cls-3" cx="1214.85" cy="883.28" r="4.92"/><circle class="cls-3" cx="1334.19" cy="894.3" r="2.8"/><circle class="cls-3" cx="1393.91" cy="902.2" r="5.09"/><circle class="cls-3" cx="1417.05" cy="942.54" r="6.72"/><circle class="cls-3" cx="1364.68" cy="922.98" r="4.28"/><circle class="cls-3" cx="1214.85" cy="927.91" r="4.92"/><circle class="cls-3" cx="1127.03" cy="892.9" r="1.4"/><circle class="cls-3" cx="1123.96" cy="968.21" r="3.07"/><circle class="cls-3" cx="1481.62" cy="981.88" r="3.04"/><circle class="cls-3" cx="1475.72" cy="915.85" r="2.85"/><circle class="cls-9" cx="394" cy="211" r="1.74"/><circle class="cls-9" cx="451" cy="240" r="1.74"/><circle class="cls-9" cx="634" cy="446" r="1.74"/><circle class="cls-9" cx="655" cy="540" r="1.74"/><circle class="cls-9" cx="636" cy="666" r="1.74"/><circle class="cls-9" cx="506" cy="746" r="1.74"/><circle class="cls-9" cx="390" cy="754" r="1.74"/><circle class="cls-9" cx="321" cy="654" r="1.74"/><circle class="cls-9" cx="383" cy="396" r="1.74"/><circle class="cls-9" cx="548" cy="273" r="1.74"/><circle class="cls-9" cx="872" cy="209" r="1.74"/><circle class="cls-9" cx="1205" cy="218" r="1.74"/><circle class="cls-9" cx="1476" cy="342" r="1.74"/><circle class="cls-9" cx="1534" cy="343" r="1.74"/><circle class="cls-9" cx="1528" cy="345" r="1.74"/><circle class="cls-9" cx="1633" cy="406" r="1.74"/><circle class="cls-9" cx="1715" cy="649" r="1.74"/><circle class="cls-9" cx="1821" cy="706" r="1.74"/><circle class="cls-9" cx="2167" cy="602" r="1.74"/><circle class="cls-9" cx="2212" cy="332" r="1.74"/><circle class="cls-9" cx="2155" cy="231" r="1.74"/><circle class="cls-9" cx="797" cy="729" r="1.74"/><circle class="cls-9" cx="819" cy="656" r="1.74"/><circle class="cls-9" cx="983" cy="333" r="1.74"/><circle class="cls-9" cx="1037" cy="255" r="1.74"/><circle class="cls-9" cx="1023" cy="236" r="1.74"/><circle class="cls-9" cx="922" cy="168" r="1.74"/><circle class="cls-9" cx="692" cy="144" r="1.74"/><circle class="cls-9" cx="611" cy="151" r="1.74"/><circle class="cls-9" cx="597" cy="153" r="1.74"/><circle class="cls-9" cx="753" cy="78" r="1.74"/><circle class="cls-9" cx="1373" cy="183" r="1.74"/><circle class="cls-9" cx="1634" cy="317" r="1.74"/><circle class="cls-9" cx="1744" cy="290" r="1.74"/><circle class="cls-9" cx="1858" cy="180" r="1.74"/><circle class="cls-9" cx="1942" cy="376" r="1.74"/><circle class="cls-9" cx="1959" cy="684" r="1.74"/><circle class="cls-9" cx="1973" cy="699" r="1.74"/><circle class="cls-9" cx="293" cy="1242" r="1.74"/><circle class="cls-9" cx="298" cy="1237" r="1.74"/><circle class="cls-9" cx="234" cy="1087" r="1.74"/><circle class="cls-9" cx="152" cy="835" r="1.74"/><circle class="cls-9" cx="121" cy="647" r="1.74"/><circle class="cls-9" cx="101" cy="463" r="1.74"/><circle class="cls-9" cx="101" cy="282" r="1.74"/><circle class="cls-9" cx="138" cy="125" r="1.74"/><circle class="cls-9" cx="244" cy="26" r="1.74"/><circle class="cls-9" cx="629" cy="49" r="1.74"/><circle class="cls-9" cx="1553" cy="98" r="1.74"/><circle class="cls-9" cx="1953" cy="114" r="1.74"/><circle class="cls-9" cx="1984" cy="125" r="1.74"/><circle class="cls-9" cx="1977" cy="128" r="1.74"/><circle class="cls-9" cx="1983" cy="133" r="1.74"/><circle class="cls-9" cx="2005" cy="129" r="1.74"/><circle class="cls-9" cx="2282" cy="125" r="1.74"/><circle class="cls-9" cx="2268" cy="582" r="1.74"/><circle class="cls-9" cx="2305" cy="1107" r="1.74"/><circle class="cls-9" cx="2356" cy="1213" r="1.74"/><circle class="cls-9" cx="2432" cy="1219" r="1.74"/><circle class="cls-9" cx="2142" cy="1216" r="1.74"/><circle class="cls-9" cx="1842" cy="1080" r="1.74"/><circle class="cls-9" cx="2210" cy="766" r="1.74"/><circle class="cls-9" cx="2548" cy="783" r="1.74"/><circle class="cls-9" cx="2262" cy="793" r="1.74"/><circle class="cls-9" cx="1914" cy="876" r="1.74"/><circle class="cls-9" cx="1835" cy="836" r="1.74"/><circle class="cls-9" cx="1692" cy="575" r="1.74"/><circle class="cls-9" cx="1412" cy="378" r="1.74"/><circle class="cls-9" cx="311" cy="1312" r="1.74"/><circle class="cls-9" cx="324" cy="1312" r="1.74"/><circle class="cls-9" cx="759" cy="1084" r="1.74"/><circle class="cls-9" cx="834" cy="1026" r="1.74"/><circle class="cls-9" cx="589" cy="774" r="1.74"/><circle class="cls-9" cx="456" cy="623" r="1.74"/><circle class="cls-9" cx="418" cy="525" r="1.74"/><circle class="cls-9" cx="470" cy="480" r="1.74"/><circle class="cls-9" cx="397" cy="493" r="1.74"/><circle class="cls-9" cx="275" cy="402" r="1.74"/><circle class="cls-9" cx="232" cy="344" r="1.74"/><circle class="cls-9" cx="242" cy="339" r="1.74"/><circle class="cls-9" cx="985" cy="635" r="1.74"/><circle class="cls-9" cx="1000" cy="574" r="1.74"/><circle class="cls-9" cx="1048" cy="481" r="1.74"/><circle class="cls-9" cx="1093" cy="420" r="1.74"/><circle class="cls-9" cx="1118" cy="398" r="1.74"/><circle class="cls-9" cx="416" cy="1086" r="1.74"/><circle class="cls-9" cx="443" cy="1065" r="1.74"/><circle class="cls-9" cx="560" cy="970" r="1.74"/><circle class="cls-9" cx="637" cy="927" r="1.74"/><circle class="cls-9" cx="1936" cy="1171" r="1.74"/><circle class="cls-9" cx="1984" cy="1091" r="1.74"/><circle class="cls-9" cx="2115" cy="961" r="1.74"/><circle class="cls-9" cx="2263" cy="908" r="1.74"/><use width="14" height="14" transform="translate(536 1209)" xlink:href="#sparkle"/><use width="14" height="14" transform="translate(612 878)" xlink:href="#sparkle"/><use width="14" height="14" transform="translate(772 602)" xlink:href="#sparkle"/><use width="14" height="14" transform="translate(769 460)" xlink:href="#sparkle"/><use width="14" height="14" transform="translate(679 381)" xlink:href="#sparkle"/><use width="14" height="14" transform="translate(713 290)" xlink:href="#sparkle"/><use width="14" height="14" transform="translate(885 184)" xlink:href="#sparkle"/><use width="14" height="14" transform="translate(1404 233)" xlink:href="#sparkle"/><use width="14" height="14" transform="translate(1775 377)" xlink:href="#sparkle"/><use width="14" height="14" transform="translate(1873 625)" xlink:href="#sparkle"/><use width="14" height="14" transform="translate(1738 860)" xlink:href="#sparkle"/><use width="14" height="14" transform="translate(1788 997)" xlink:href="#sparkle"/><use width="14" height="14" transform="translate(1887 1109)" xlink:href="#sparkle"/><use width="14" height="14" transform="translate(1968 1099)" xlink:href="#sparkle"/><use width="14" height="14" transform="translate(1982 1106)" xlink:href="#sparkle"/><use width="14" height="14" transform="translate(1982 1092)" xlink:href="#sparkle"/><use width="14" height="14" transform="translate(2279 930)" xlink:href="#sparkle"/><use width="14" height="14" transform="translate(2349 599)" xlink:href="#sparkle"/><use width="14" height="14" transform="translate(2420 338)" xlink:href="#sparkle"/><use width="14" height="14" transform="translate(2467 57)" xlink:href="#sparkle"/><use width="14" height="14" transform="translate(2471 23)" xlink:href="#sparkle"/><use width="14" height="14" transform="translate(2342 276)" xlink:href="#sparkle"/><use width="14" height="14" transform="translate(2290 418)" xlink:href="#sparkle"/><use width="14" height="14" transform="translate(360 94)" xlink:href="#sparkle"/><use width="14" height="14" transform="translate(246 290)" xlink:href="#sparkle"/><use width="14" height="14" transform="translate(200 481)" xlink:href="#sparkle"/><use width="14" height="14" transform="translate(182 684)" xlink:href="#sparkle"/><use width="14" height="14" transform="translate(121 924)" xlink:href="#sparkle"/><use width="14" height="14" transform="translate(92 1022)" xlink:href="#sparkle"/><use width="14" height="14" transform="translate(92 1009)" xlink:href="#sparkle"/><use width="14" height="14" transform="translate(109 1015)" xlink:href="#sparkle"/><use width="14" height="14" transform="translate(197 1071)" xlink:href="#sparkle"/><use width="14" height="14" transform="translate(217 791)" xlink:href="#sparkle"/><use width="14" height="14" transform="translate(308 540)" xlink:href="#sparkle"/><use width="14" height="14" transform="translate(398 472)" xlink:href="#sparkle"/><use width="14" height="14" transform="translate(473 322)" xlink:href="#sparkle"/><use width="14" height="14" transform="translate(502 274)" xlink:href="#sparkle"/><use width="14" height="14" transform="translate(899 947)" xlink:href="#sparkle"/><use width="14" height="14" transform="translate(916 913)" xlink:href="#sparkle"/><use width="14" height="14" transform="translate(989 773)" xlink:href="#sparkle"/><use width="14" height="14" transform="translate(1380 460)" xlink:href="#sparkle"/><use width="14" height="14" transform="translate(1514 604)" xlink:href="#sparkle"/><use width="14" height="14" transform="translate(1681 901)" xlink:href="#sparkle"/><use width="14" height="14" transform="translate(1689 996)" xlink:href="#sparkle"/><use width="14" height="14" transform="translate(1697 987)" xlink:href="#sparkle"/><use width="14" height="14" transform="translate(1746 1058)" xlink:href="#sparkle"/><use width="14" height="14" transform="translate(1949 1318)" xlink:href="#sparkle"/><use width="14" height="14" transform="translate(2085 1339)" xlink:href="#sparkle"/><use width="14" height="14" transform="translate(2253 1323)" xlink:href="#sparkle"/><use width="14" height="14" transform="translate(2382 1347)" xlink:href="#sparkle"/><use width="14" height="14" transform="translate(2505 1356)" xlink:href="#sparkle"/><use width="14" height="14" transform="translate(806 1185)" xlink:href="#sparkle"/><use width="14" height="14" transform="translate(686 1256)" xlink:href="#sparkle"/><use width="14" height="14" transform="translate(524 1339)" xlink:href="#sparkle"/><use width="14" height="14" transform="translate(355 1360)" xlink:href="#sparkle"/><use width="14" height="14" transform="translate(174 1398)" xlink:href="#sparkle"/><use width="14" height="14" transform="translate(17 1395)" xlink:href="#sparkle"/><use width="14" height="14" transform="translate(24 1231)" xlink:href="#sparkle"/><use width="14" height="14" transform="translate(75 1195)" xlink:href="#sparkle"/><use width="14" height="14" transform="translate(128 1149)" xlink:href="#sparkle"/><use width="14" height="14" transform="translate(41 57)" xlink:href="#sparkle"/><use width="14" height="14" transform="translate(41 150)" xlink:href="#sparkle"/><use width="14" height="14" transform="translate(10 434)" xlink:href="#sparkle"/><use width="14" height="14" transform="translate(883 84)" xlink:href="#sparkle"/><use width="14" height="14" transform="translate(898 85)" xlink:href="#sparkle"/><use width="14" height="14" transform="translate(1346 91)" xlink:href="#sparkle"/><use width="14" height="14" transform="translate(1582 134)" xlink:href="#sparkle"/><use width="14" height="14" transform="translate(1760 76)" xlink:href="#sparkle"/><use width="14" height="14" transform="translate(1977 64)" xlink:href="#sparkle"/><use width="14" height="14" transform="translate(2127 263)" xlink:href="#sparkle"/><use width="14" height="14" transform="translate(2094 463)" xlink:href="#sparkle"/><use width="14" height="14" transform="translate(2085 687)" xlink:href="#sparkle"/><use width="14" height="14" transform="translate(2064 813)" xlink:href="#sparkle"/><path class="cls-14" d="M2370,767.06c0-15.29-20.76-27.69-46.37-27.69a70.83,70.83,0,0,0-24.4,4.14c-6.5-15.27-30.21-26.6-58.48-26.6a91.87,91.87,0,0,0-35.37,6.68C2194.6,700.7,2161,684,2121.13,684c-48.53,0-87.87,24.79-87.87,55.37"/><path class="cls-15" d="M966.64,776.09c0-32.13-41.22-58.17-92.07-58.17-35.42,0-66.15,12.63-81.56,31.16A118.66,118.66,0,0,0,761.74,745c-40.36,0-73.15,19-74,42.61A95.66,95.66,0,0,0,670.12,786c-27.82,0-50.38,11.36-50.38,25.37"/><path class="cls-16" d="M1929.1,282.54c0-3.16-5.33-5.72-11.9-5.72a20.88,20.88,0,0,0-7.62,1.33c-2-4.68-9.2-8.15-17.74-8.15a30,30,0,0,0-5.71.54c-4-9-16.37-15.54-31-15.54-17.88,0-32.38,9.77-32.38,21.82"/><g class="cls-17"><circle class="cls-18" cx="1635.74" cy="402" r="64.5"/><g class="cls-19"><path class="cls-20" d="M1635.74,383c-58,0-105.1,8.5-105.1,19s47.05,19,105.1,19,105.1-8.5,105.1-19S1693.79,383,1635.74,383Zm0,25.52c-47.61,0-86.2-5.15-86.2-11.5s38.59-11.5,86.2-11.5,86.2,5.15,86.2,11.5S1683.35,408.54,1635.74,408.54Z"/></g></g><g class="cls-21"><path class="cls-7" d="M455.14,340.54a32.72,32.72,0,1,1,35-55.29Z"/><polygon class="cls-22" points="490.15 285.24 473.09 314.27 455.14 340.53 490.15 285.24"/><path class="cls-7" d="M496.83,330.5l-39.06-24.73a1,1,0,1,1,1.07-1.69l39.06,24.73A1,1,0,1,1,496.83,330.5Z"/><path class="cls-7" d="M454.2,305.87l-39.06-24.73a3,3,0,0,1,3.21-5.07l39.06,24.73A3,3,0,0,1,454.2,305.87Z"/><rect class="cls-7" x="347.88" y="243.56" width="90.44" height="40.61" transform="translate(202.15 -169.36) rotate(32.34)"/><rect class="cls-7" x="337.15" y="261.16" width="112" height="5" transform="translate(-39.94 454.76) rotate(-57.66)"/><rect class="cls-7" x="417.5" y="172.18" width="23.74" height="68.31" transform="translate(177 -197.7) rotate(32.34)"/><rect class="cls-7" x="346.05" y="285.25" width="23.74" height="68.31" transform="translate(226.4 -141.93) rotate(32.34)"/></g></g></g></svg>